<mxfile host="65bd71144e">
    <diagram id="tYJdsMAIOQ761ntMj-JU" name="Page-1">
        <mxGraphModel dx="607" dy="379" grid="1" gridSize="10" guides="1" tooltips="1" connect="1" arrows="1" fold="1" page="1" pageScale="1" pageWidth="827" pageHeight="1169" math="0" shadow="0">
            <root>
                <mxCell id="0"/>
                <mxCell id="1" parent="0"/>
                <mxCell id="3" style="edgeStyle=none;html=1;entryX=0.5;entryY=0;entryDx=0;entryDy=0;" parent="1" source="2" target="20" edge="1">
                    <mxGeometry relative="1" as="geometry">
                        <mxPoint x="220" y="220" as="targetPoint"/>
                    </mxGeometry>
                </mxCell>
                <mxCell id="2" value="Start" style="strokeWidth=2;html=1;shape=mxgraph.flowchart.terminator;whiteSpace=wrap;" parent="1" vertex="1">
                    <mxGeometry x="230" y="30" width="100" height="60" as="geometry"/>
                </mxCell>
                <mxCell id="6" style="edgeStyle=none;html=1;exitX=0.5;exitY=1;exitDx=0;exitDy=0;entryX=0.5;entryY=0;entryDx=0;entryDy=0;" parent="1" source="20" target="52" edge="1">
                    <mxGeometry relative="1" as="geometry">
                        <mxPoint x="300" y="310" as="sourcePoint"/>
                        <mxPoint x="280" y="220" as="targetPoint"/>
                    </mxGeometry>
                </mxCell>
                <mxCell id="20" value="Get month &lt;br&gt;number" style="shape=parallelogram;html=1;strokeWidth=2;perimeter=parallelogramPerimeter;whiteSpace=wrap;rounded=1;arcSize=12;size=0.23;" parent="1" vertex="1">
                    <mxGeometry x="220" y="120" width="120" height="60" as="geometry"/>
                </mxCell>
                <mxCell id="26" value="Stop" style="strokeWidth=2;html=1;shape=mxgraph.flowchart.terminator;whiteSpace=wrap;" parent="1" vertex="1">
                    <mxGeometry x="550" y="720" width="100" height="60" as="geometry"/>
                </mxCell>
                <mxCell id="58" style="edgeStyle=none;html=1;exitX=0.5;exitY=1;exitDx=0;exitDy=0;entryX=0;entryY=0.5;entryDx=0;entryDy=0;rounded=0;" edge="1" parent="1" source="52" target="76">
                    <mxGeometry relative="1" as="geometry">
                        <mxPoint x="420.70000000000005" y="650" as="targetPoint"/>
                        <Array as="points">
                            <mxPoint x="280" y="650"/>
                        </Array>
                    </mxGeometry>
                </mxCell>
                <mxCell id="59" style="edgeStyle=none;rounded=0;html=1;entryX=0;entryY=0.5;entryDx=0;entryDy=0;" edge="1" parent="1" source="52" target="56">
                    <mxGeometry relative="1" as="geometry">
                        <Array as="points">
                            <mxPoint x="280" y="570"/>
                        </Array>
                    </mxGeometry>
                </mxCell>
                <mxCell id="60" style="edgeStyle=none;rounded=0;html=1;entryX=0;entryY=0.5;entryDx=0;entryDy=0;" edge="1" parent="1" source="52" target="55">
                    <mxGeometry relative="1" as="geometry">
                        <Array as="points">
                            <mxPoint x="280" y="490"/>
                        </Array>
                    </mxGeometry>
                </mxCell>
                <mxCell id="61" style="edgeStyle=none;rounded=0;html=1;entryX=0;entryY=0.5;entryDx=0;entryDy=0;" edge="1" parent="1" source="52" target="54">
                    <mxGeometry relative="1" as="geometry">
                        <Array as="points">
                            <mxPoint x="280" y="410"/>
                        </Array>
                    </mxGeometry>
                </mxCell>
                <mxCell id="62" style="edgeStyle=none;rounded=0;html=1;entryX=0;entryY=0.5;entryDx=0;entryDy=0;" edge="1" parent="1" source="52" target="53">
                    <mxGeometry relative="1" as="geometry">
                        <Array as="points">
                            <mxPoint x="280" y="330"/>
                        </Array>
                    </mxGeometry>
                </mxCell>
                <mxCell id="52" value="month &lt;br&gt;number" style="rhombus;whiteSpace=wrap;html=1;" vertex="1" parent="1">
                    <mxGeometry x="225" y="220" width="110" height="80" as="geometry"/>
                </mxCell>
                <mxCell id="63" style="edgeStyle=none;rounded=0;html=1;entryX=0.5;entryY=0;entryDx=0;entryDy=0;entryPerimeter=0;" edge="1" parent="1" source="53" target="26">
                    <mxGeometry relative="1" as="geometry">
                        <mxPoint x="530" y="710" as="targetPoint"/>
                        <Array as="points">
                            <mxPoint x="600" y="330"/>
                        </Array>
                    </mxGeometry>
                </mxCell>
                <mxCell id="53" value="print(&quot;January&quot;.format&lt;br&gt;(month_number))" style="shape=parallelogram;html=1;strokeWidth=2;perimeter=parallelogramPerimeter;whiteSpace=wrap;rounded=1;arcSize=12;size=0.23;" vertex="1" parent="1">
                    <mxGeometry x="414" y="300" width="176" height="60" as="geometry"/>
                </mxCell>
                <mxCell id="64" style="edgeStyle=none;rounded=0;html=1;entryX=0.5;entryY=0;entryDx=0;entryDy=0;entryPerimeter=0;" edge="1" parent="1" source="54" target="26">
                    <mxGeometry relative="1" as="geometry">
                        <mxPoint x="600" y="610" as="targetPoint"/>
                        <Array as="points">
                            <mxPoint x="600" y="410"/>
                        </Array>
                    </mxGeometry>
                </mxCell>
                <mxCell id="54" value="print(&quot;February&quot;.format&lt;br&gt;(month_number))" style="shape=parallelogram;html=1;strokeWidth=2;perimeter=parallelogramPerimeter;whiteSpace=wrap;rounded=1;arcSize=12;size=0.23;" vertex="1" parent="1">
                    <mxGeometry x="400" y="380" width="180" height="60" as="geometry"/>
                </mxCell>
                <mxCell id="65" style="edgeStyle=none;rounded=0;html=1;" edge="1" parent="1" source="55">
                    <mxGeometry relative="1" as="geometry">
                        <mxPoint x="600" y="720" as="targetPoint"/>
                        <Array as="points">
                            <mxPoint x="600" y="490"/>
                        </Array>
                    </mxGeometry>
                </mxCell>
                <mxCell id="55" value="print(&quot;March&quot;.format&lt;br&gt;(month_number))" style="shape=parallelogram;html=1;strokeWidth=2;perimeter=parallelogramPerimeter;whiteSpace=wrap;rounded=1;arcSize=12;size=0.23;" vertex="1" parent="1">
                    <mxGeometry x="400" y="460" width="180" height="60" as="geometry"/>
                </mxCell>
                <mxCell id="66" style="edgeStyle=none;rounded=0;html=1;entryX=0.5;entryY=0;entryDx=0;entryDy=0;entryPerimeter=0;" edge="1" parent="1" source="56" target="26">
                    <mxGeometry relative="1" as="geometry">
                        <mxPoint x="640" y="640" as="targetPoint"/>
                        <Array as="points">
                            <mxPoint x="600" y="570"/>
                        </Array>
                    </mxGeometry>
                </mxCell>
                <mxCell id="56" value="...." style="shape=parallelogram;html=1;strokeWidth=2;perimeter=parallelogramPerimeter;whiteSpace=wrap;rounded=1;arcSize=12;size=0.23;" vertex="1" parent="1">
                    <mxGeometry x="400" y="540" width="180" height="60" as="geometry"/>
                </mxCell>
                <mxCell id="68" style="edgeStyle=none;rounded=0;html=1;entryX=0.5;entryY=0;entryDx=0;entryDy=0;entryPerimeter=0;exitX=1;exitY=0.5;exitDx=0;exitDy=0;" edge="1" parent="1" source="76" target="26">
                    <mxGeometry relative="1" as="geometry">
                        <mxPoint x="559.3" y="650" as="sourcePoint"/>
                        <Array as="points">
                            <mxPoint x="600" y="650"/>
                        </Array>
                    </mxGeometry>
                </mxCell>
                <mxCell id="69" value="1" style="text;html=1;align=center;verticalAlign=middle;resizable=0;points=[];autosize=1;strokeColor=none;fillColor=none;" vertex="1" parent="1">
                    <mxGeometry x="310" y="300" width="20" height="20" as="geometry"/>
                </mxCell>
                <mxCell id="70" value="2" style="text;html=1;align=center;verticalAlign=middle;resizable=0;points=[];autosize=1;strokeColor=none;fillColor=none;" vertex="1" parent="1">
                    <mxGeometry x="310" y="380" width="20" height="20" as="geometry"/>
                </mxCell>
                <mxCell id="71" value="3" style="text;html=1;align=center;verticalAlign=middle;resizable=0;points=[];autosize=1;strokeColor=none;fillColor=none;" vertex="1" parent="1">
                    <mxGeometry x="310" y="460" width="20" height="20" as="geometry"/>
                </mxCell>
                <mxCell id="74" value="&lt;b&gt;_:&lt;/b&gt;" style="text;html=1;align=center;verticalAlign=middle;resizable=0;points=[];autosize=1;strokeColor=none;fillColor=none;" vertex="1" parent="1">
                    <mxGeometry x="305" y="610" width="30" height="20" as="geometry"/>
                </mxCell>
                <mxCell id="75" value="4, 5, 6......" style="text;html=1;align=center;verticalAlign=middle;resizable=0;points=[];autosize=1;strokeColor=none;fillColor=none;" vertex="1" parent="1">
                    <mxGeometry x="290" y="540" width="70" height="20" as="geometry"/>
                </mxCell>
                <mxCell id="76" value="&lt;div&gt;print(&quot;The number&lt;/div&gt;&lt;div&gt;has to be&lt;/div&gt;&lt;div&gt;between 1 and 12.&quot;)&amp;nbsp; &amp;nbsp;&lt;/div&gt;" style="shape=parallelogram;html=1;strokeWidth=2;perimeter=parallelogramPerimeter;whiteSpace=wrap;rounded=1;arcSize=12;size=0.23;" vertex="1" parent="1">
                    <mxGeometry x="400" y="620" width="180" height="60" as="geometry"/>
                </mxCell>
            </root>
        </mxGraphModel>
    </diagram>
</mxfile>